<svg xmlns="http://www.w3.org/2000/svg" width="50" height="50"><path d="m22.3 34.4-1.6-4.3S18.1 33 14.1 33C10.7 33 8 29.8 8 25c0-6.1 3.3-8 6.4-8 4.4 0 5.8 2.8 7.1 6.4l1.6 4.9c1.6 4.8 4.6 8.7 13.4 8.7 6.2 0 10.5-1.9 10.5-6.8 0-4-2.3-6.1-6.7-7.1l-3.2-.7c-2.2-.5-3-1.5-3-2.9 0-1.7 1.7-2.5 3.9-2.5 2.4 0 3.8.9 4 3l5-1c-.4-4.5-3.7-6-8.9-6-4.5 0-9.1 1.6-9.1 7 0 3.4 1.8 5.6 6 6.6l3.4.8c2.5.5 3.5 1.6 3.5 3 0 1.8-2 2.6-5.4 2.6-5.1 0-7.2-2.6-8.4-6.2l-1.7-4.9c-2.1-6.5-5.5-8.9-12.2-8.9C6.8 13 3 17.4 3 25.3 3 32.6 6.8 37 13.9 37c5.7 0 8.4-2.6 8.4-2.6z"/></svg>
